<?xml version="1.0" encoding="iso-8859-1"?>
<!-- Generator: Adobe Illustrator 19.0.0, SVG Export Plug-In . SVG Version: 6.00 Build 0)  -->
<svg version="1.1" id="Capa_1" xmlns="http://www.w3.org/2000/svg" xmlns:xlink="http://www.w3.org/1999/xlink" x="0px" y="0px"
	 viewBox="0 0 480 480" style="enable-background:new 0 0 480 480;" xml:space="preserve">
<g>
	<g>
		<path fill="white" d="M368,136h-11.056L343.2,108.424c-1.362-2.725-4.153-4.441-7.2-4.424h-72V8c0-4.418-3.582-8-8-8h-32c-4.418,0-8,3.582-8,8
			v96h-72c-3.032-0.001-5.805,1.712-7.16,4.424L123.056,136H112c-4.418,0-8,3.582-8,8v32c0,4.418,3.582,8,8,8h8.696L144,440.728
			c0.378,4.132,3.851,7.289,8,7.272v24c0,4.418,3.582,8,8,8h160c4.418,0,8-3.582,8-8v-24c4.149,0.017,7.622-3.14,8-7.272
			L359.304,184H368c4.418,0,8-3.582,8-8v-32C376,139.582,372.418,136,368,136z M232,16h16v88h-16V16z M148.944,120h182.112l8,16
			H140.944L148.944,120z M312,464H168v-16h144V464z M320.696,432H159.304l-2.912-32h167.2L320.696,432z M325.056,384H154.944
			l-13.096-144h196.304L325.056,384z M339.608,224h-199.2l-3.608-40h206.48L339.608,224z M360,168H120v-16h240V168z"/>
	</g>
</g>
<g>
	<g>
		<path fill="white" d="M240,256c-30.928,0-56,25.072-56,56c0,30.928,25.072,56,56,56c30.928,0,56-25.072,56-56
			C295.96,281.089,270.911,256.04,240,256z M240,352c-22.091,0-40-17.909-40-40s17.909-40,40-40s40,17.909,40,40
			C279.974,334.08,262.08,351.974,240,352z"/>
	</g>
</g>
<g>
</g>
<g>
</g>
<g>
</g>
<g>
</g>
<g>
</g>
<g>
</g>
<g>
</g>
<g>
</g>
<g>
</g>
<g>
</g>
<g>
</g>
<g>
</g>
<g>
</g>
<g>
</g>
<g>
</g>
</svg>
