<?xml version="1.0" encoding="iso-8859-1"?>
<!-- Generator: Adobe Illustrator 19.0.0, SVG Export Plug-In . SVG Version: 6.00 Build 0)  -->
<svg version="1.1" id="Capa_1" xmlns="http://www.w3.org/2000/svg" xmlns:xlink="http://www.w3.org/1999/xlink" x="0px" y="0px"
	 viewBox="0 0 480 480" style="enable-background:new 0 0 480 480;" xml:space="preserve">
<g>
	<g>
		<g>
			<path fill="#fff" d="M475.632,148.976l0.04-0.088L263.624,39.2c0.193-1.058,0.319-2.126,0.376-3.2c0-13.255-10.745-24-24-24s-24,10.745-24,24
				c0.056,1.074,0.184,2.143,0.384,3.2L4.328,148.888v0.088C1.686,150.325,0.017,153.034,0,156v304c0,4.418,3.582,8,8,8h464
				c4.418,0,8-3.582,8-8V156C479.976,153.025,478.289,150.313,475.632,148.976z M240,28c4.445,0.012,8.038,3.625,8.026,8.07
				c-0.003,1.224-0.286,2.432-0.826,3.53c-2.404,3.968-7.569,5.236-11.537,2.832c-1.131-0.685-2.085-1.628-2.783-2.752
				c-0.577-1.141-0.879-2.401-0.88-3.68C232,31.582,235.582,28,240,28z M223.632,53.472c9.174,8.703,23.554,8.703,32.728,0
				L439.112,148H40.888L223.632,53.472z M464,452H16V164h448V452z"/>
			<path fill="#fff" d="M40,436h400c4.418,0,8-3.582,8-8V188c0-4.418-3.582-8-8-8H40c-4.418,0-8,3.582-8,8v240C32,432.418,35.582,436,40,436z
				 M48,196h384v112H332l-21.6-28.8c-1.477-1.97-3.778-3.15-6.24-3.2c-2.456,0.023-4.784,1.095-6.4,2.944l-19.552,24l-32.592-32.592
				c-3.124-3.123-8.188-3.123-11.312,0L156,348.688l-22.344-22.344c-3.019-3.021-7.88-3.137-11.04-0.264
				c-22.864,20.8-56.592,51.2-74.616,67.096V196z M266.68,313.992l-11.52,8.64l-11.584-5.832c-2.251-1.125-4.901-1.125-7.152,0
				l-11.848,5.928l-12.016-7.976l27.44-27.44L266.68,313.992z M152.184,367.496l-15.2,10.192l-11.344-11.344
				c-3.124-3.123-8.188-3.123-11.312,0l-10.712,10.712l-6.808-5.944c8.84-8,18.976-17.208,30.912-28.064L152.184,367.496z
				 M48,413.896c6.344-4.76,17.128-14.176,36.88-32L98.736,394c3.17,2.769,7.944,2.608,10.92-0.368L120,383.312l10.344,10.344
				c2.703,2.701,6.939,3.113,10.112,0.984l23.256-15.616l14.632,14.632c1.5,1.5,3.534,2.344,5.656,2.344h48v-16h-44.688l-20-20
				l33.704-33.704l18.544,12.36c2.387,1.578,5.433,1.77,8,0.504l12.44-6.216l12.424,6.216c1.112,0.551,2.335,0.839,3.576,0.84
				c1.731,0,3.415-0.561,4.8-1.6l17.304-12.984l20.24,20.24c1.5,1.5,3.534,2.344,5.656,2.344h64v-16h-60.688L289.6,314.312
				l14.112-17.328L321.6,320.8c1.511,2.014,3.882,3.2,6.4,3.2h104v96l-384,0V413.896z"/>
			<path fill="#fff" d="M408,236c0-13.255-10.745-24-24-24v16c4.418,0,8,3.582,8,8s-3.582,8-8,8h-48v16h48C397.255,260,408,249.255,408,236z"/>
			<path fill="#fff" d="M152,244c0-13.255-10.745-24-24-24s-24,10.745-24,24s10.745,24,24,24S152,257.255,152,244z M120,244c0-4.418,3.582-8,8-8
				s8,3.582,8,8s-3.582,8-8,8S120,248.418,120,244z"/>
		</g>
	</g>
</g>
<g>
</g>
<g>
</g>
<g>
</g>
<g>
</g>
<g>
</g>
<g>
</g>
<g>
</g>
<g>
</g>
<g>
</g>
<g>
</g>
<g>
</g>
<g>
</g>
<g>
</g>
<g>
</g>
<g>
</g>
</svg>
