<svg id="Capa_1" enable-background="new 0 0 512 512" height="512" viewBox="0 0 512 512" width="512" xmlns="http://www.w3.org/2000/svg"><g>
	<path fill="#fff" d="m467 60h-286v-45c0-8.284-6.716-15-15-15h-60c-8.284 0-15 6.716-15 15v45h-46c-24.813 0-45 20.187-45 45v240c0 24.813 20.187 45 45 45h46v107c0 8.284 6.716 15 15 15h301c8.284 0 15-6.716 15-15v-107h45c24.813 0 45-20.187 45-45v-240c0-24.813-20.187-45-45-45zm-346-30h30v30h-30zm271 452h-271v-92h271zm90-137c0 8.271-6.729 15-15 15h-422c-8.271 0-15-6.729-15-15v-105h122.076c7.301 50.817 51.12 90 103.924 90 52.805 0 96.623-39.183 103.924-90h122.076zm-301-120.006c.004-41.353 33.647-74.994 75-74.994 41.355 0 75 33.645 75 75s-33.645 75-75 75c-41.353 0-74.996-33.641-75-74.994 0-.002 0-.004 0-.006s0-.004 0-.006zm301-14.994h-122.076c-7.301-50.817-51.119-90-103.924-90-52.804 0-96.623 39.183-103.924 90h-122.076v-105c0-8.271 6.729-15 15-15h422c8.271 0 15 6.729 15 15z"/>
	<path fill="#fff" d="m256 270c24.813 0 45-20.187 45-45s-20.187-45-45-45-45 20.187-45 45 20.187 45 45 45zm0-60c8.271 0 15 6.729 15 15s-6.729 15-15 15-15-6.729-15-15 6.729-15 15-15z"/>
	<path fill="#fff" d="m437 120h-61c-8.284 0-15 6.716-15 15s6.716 15 15 15h61c8.284 0 15-6.716 15-15s-6.716-15-15-15z"/></g></svg>