<svg height="511pt" viewBox="0 -17 511.92702 511" width="511pt" xmlns="http://www.w3.org/2000/svg">
	<path fill="white" d="m486.042969 192.300781-44.652344-19.160156c-.09375-.035156-.191406-.058594-.285156-.09375-14.300781-98.761719-92.875-172.582031-185.207031-172.582031-92.359376 0-170.960938 73.871094-185.210938 172.636718-.085938.035157-.171875.050782-.257812.085938l-44.546876 19.113281c-21.277343 9.015625-31.421874 33.394531-22.828124 54.839844l20.5 51.882813c-2.15625 5.460937-3.347657 11.25-3.527344 17.117187-.273438 14.816406 4.566406 29.277344 13.707031 40.945313 8.84375 11.894531 21.515625 20.382812 35.878906 24.027343 3.992188.960938 8.082031 1.453125 12.1875 1.464844 19.664063.285156 37.046875-12.71875 42.320313-31.660156 5.976562 6.492187 12.394531 12.5625 19.207031 18.175781-20.167969 12.398438-32.46875 34.363281-32.496094 58.035156v25.601563c.015625 14.132812 11.46875 25.585937 25.601563 25.601562h102.398437c6.320313-.019531 12.402344-2.394531 17.066407-6.65625 4.664062 4.261719 10.75 6.636719 17.066406 6.65625h102.402344c14.128906-.015625 25.582031-11.46875 25.597656-25.601562v-25.601563c-.027344-23.671875-12.328125-45.640625-32.5-58.035156 6.855468-5.636719 13.308594-11.746094 19.3125-18.28125 5.238281 18.996094 22.648437 32.058594 42.355468 31.761719 4.105469-.011719 8.191407-.5 12.183594-1.460938 29.386719-7.855469 49.765625-34.558593 49.585938-64.972656-.179688-5.867187-1.371094-11.65625-3.527344-17.117187l20.496094-51.875c8.597656-21.449219-1.550782-45.835938-22.828125-54.847657zm-41.878907 79.328125c-2.996093.183594-5.96875.613282-8.890624 1.289063-.824219.195312-1.628907.46875-2.445313.703125 4.648437-14.457032 7.78125-29.359375 9.351563-44.464844l16.035156 6.875zm-376.394531 0-14.054687-35.59375 15.90625-6.828125c1.582031 15.074219 4.714844 29.945313 9.347656 44.375-.769531-.21875-1.535156-.480469-2.3125-.667969-2.921875-.675781-5.894531-1.105468-8.890625-1.285156zm-35.148437-63.644531 35.925781-15.417969c-.242187 4.199219-.382813 8.4375-.382813 12.695313 0 1.96875.085938 3.972656.132813 5.949219l-28.921875 12.40625c-4.242188 1.820312-6.269531 6.683593-4.574219 10.976562l15.445313 39.125c-4.582032 1.484375-8.878906 3.730469-12.714844 6.644531-.789062.597657-1.5 1.277344-2.238281 1.921875l-16.363281-41.421875c-5.152344-12.859375.933593-27.476562 13.691406-32.878906zm65.761718 152.117187c-7.171874 5.171876-16.3125 6.792969-24.824218 4.40625-10.535156-2.734374-19.808594-9.011718-26.257813-17.777343-6.753906-8.535157-10.359375-19.132813-10.21875-30.011719-.050781-8.84375 3.925781-17.230469 10.804688-22.785156 4.804687-3.59375 10.667969-5.492188 16.671875-5.394532 2.746094.011719 5.480468.34375 8.152344.984376 10.535156 2.734374 19.804687 9.011718 26.261718 17.773437v.003906c6.75 8.535157 10.355469 19.132813 10.214844 30.011719.054688 8.84375-3.925781 17.234375-10.804688 22.789062zm80.714844 15.828126h17.066406c28.265626.03125 51.171876 22.9375 51.203126 51.199218h-119.46875c.03125-28.261718 22.9375-51.167968 51.199218-51.199218zm59.734375 85.332031h-102.398437c-4.710938-.003907-8.527344-3.820313-8.535156-8.53125v-8.535157h119.46875v8.535157c-.007813 4.710937-3.824219 8.527343-8.535157 8.53125zm136.535157 0h-102.402344c-4.710938-.003907-8.527344-3.820313-8.53125-8.53125v-8.535157h119.464844v8.535157c-.003907 4.710937-3.824219 8.527343-8.53125 8.53125zm8.53125-34.132813h-119.464844c.03125-28.261718 22.933594-51.167968 51.199218-51.199218h17.066407c28.265625.03125 51.167969 22.9375 51.199219 51.199218zm-33.363282-65.820312c-5.8125-1.601563-11.808594-2.425782-17.835937-2.445313h-17.066407c-24.847656.023438-47.722656 13.539063-59.734374 35.289063-12.007813-21.75-34.882813-35.265625-59.734376-35.289063h-17.066406c-6.027344.019531-12.027344.84375-17.839844 2.445313-13.558593-9.964844-25.632812-21.8125-35.855468-35.179688-1.863282-10.628906-6.277344-20.640625-12.867188-29.1875-3.164062-4.136718-6.785156-7.902344-10.796875-11.226562-9.457031-21.96875-14.960937-45.429688-16.261719-69.3125-.164062-3.714844-.246093-7.429688-.246093-11.140625-.003907-8.164063.488281-16.324219 1.480469-24.425781 10.964843-93.101563 83.699218-163.304688 169.1875-163.304688 85.488281 0 158.226562 70.203125 169.195312 163.351562.988281 8.089844 1.480469 16.230469 1.472656 24.378907 0 3.71875-.082031 7.425781-.242187 11.054687-1.265625 23.984375-6.800781 47.546875-16.347657 69.585938-3.925781 3.28125-7.476562 6.988281-10.585937 11.046875-6.507813 8.449219-10.898437 18.335937-12.796875 28.832031-10.222656 13.539062-22.371094 25.507812-36.058594 35.527344zm114.089844-14.574219c-6.453125 8.761719-15.726562 15.039063-26.257812 17.773437-8.503907 2.632813-17.753907.992188-24.828126-4.410156-7.074218-5.398437-11.101562-13.890625-10.800781-22.785156-.144531-10.878906 3.464844-21.476562 10.214844-30.011719v-.003906c6.453125-8.761719 15.726563-15.039063 26.257813-17.773437 2.671874-.644532 5.410156-.976563 8.160156-.988282 6-.097656 11.863281 1.800782 16.671875 5.394532 6.875 5.558593 10.851562 13.941406 10.796875 22.785156.144531 10.882812-3.464844 21.484375-10.214844 30.019531zm28.371094-105.867187-16.363282 41.417968c-.738281-.644531-1.449218-1.320312-2.238281-1.921875-3.832031-2.914062-8.132812-5.160156-12.714843-6.648437l15.445312-39.121094c1.695312-4.292969-.332031-9.15625-4.574219-10.976562l-29.050781-12.457032c.046875-1.96875.132812-3.933594.132812-5.898437 0-4.277344-.140624-8.53125-.382812-12.75l36.054688 15.46875c12.757812 5.402343 18.847656 20.023437 13.695312 32.886719zm0 0"/>
	<path fill="white" d="m179.097656 149.796875c0 23.320313 8.789063 46.933594 25.601563 46.933594 16.808593 0 25.601562-23.613281 25.601562-46.933594 0-1.449219-.105469-2.847656-.171875-4.265625h8.703125c4.714844 0 8.535157-3.820312 8.535157-8.535156 0-4.710938-3.820313-8.53125-8.535157-8.53125h-68.265625c-4.714844 0-8.535156 3.820312-8.535156 8.53125 0 4.714844 3.820312 8.535156 8.535156 8.535156h8.703125c-.066406 1.417969-.171875 2.816406-.171875 4.265625zm34.132813 0c0 18.71875-6.3125 29.105469-8.34375 29.886719-2.40625-.78125-8.722657-11.167969-8.722657-29.886719 0-1.507813.257813-2.816406.34375-4.265625h16.382813c.085937 1.449219.339844 2.757812.339844 4.265625zm0 0"/>
	<path fill="white" d="m341.230469 128.464844h-68.265625c-4.710938 0-8.53125 3.820312-8.53125 8.53125 0 4.714844 3.820312 8.535156 8.53125 8.535156h8.703125c-.0625 1.417969-.167969 2.816406-.167969 4.265625 0 23.320313 8.789062 46.933594 25.597656 46.933594 16.8125 0 25.601563-23.613281 25.601563-46.933594 0-1.449219-.101563-2.847656-.171875-4.265625h8.703125c4.714843 0 8.535156-3.820312 8.535156-8.535156 0-4.710938-3.820313-8.53125-8.535156-8.53125zm-25.597657 21.332031c0 18.71875-6.316406 29.105469-8.347656 29.886719-2.40625-.78125-8.71875-11.167969-8.71875-29.886719 0-1.507813.253906-2.816406.339844-4.265625h16.382812c.085938 1.449219.34375 2.757812.34375 4.265625zm0 0"/>
	<path fill="white" d="m172.628906 86.507812.257813-.238281c2.164062-2.015625 3.988281-4.179687 5.941406-6.199219 2.222656-1.71875 4.027344-3.820312 6.207031-5.359374 3.964844-3.175782 8.476563-5.597657 13.3125-7.152344 10.125-2.144532 20.65625-1.292969 30.300782 2.460937l.386718.117188c1.191406.355469 2.480469-.117188 3.15625-1.164063.675782-1.050781.582032-2.417968-.234375-3.359375-4.46875-4.988281-10.304687-8.546875-16.78125-10.242187-6.738281-1.835938-13.871093-1.589844-20.460937.710937-6.417969 2.273438-12.15625 6.121094-16.695313 11.191407-2.113281 2.429687-4.027343 5.019531-5.730469 7.75-1.425781 2.832031-2.871093 5.601562-4.035156 8.472656-.484375 1.183594-.078125 2.542968.976563 3.269531 1.050781.722656 2.46875.617187 3.402343-.253906zm0 0"/>
	<path fill="white" d="m282.773438 70.132812.378906-.113281c9.644531-3.753906 20.175781-4.605469 30.300781-2.460937 4.835937 1.554687 9.347656 3.976562 13.3125 7.152344 2.183594 1.535156 3.984375 3.640624 6.207031 5.359374 1.953125 2.015626 3.78125 4.179688 5.941406 6.199219l.257813.238281c.933594.871094 2.347656.976563 3.402344.25 1.050781-.726562 1.457031-2.085937.976562-3.269531-1.167969-2.871093-2.613281-5.636719-4.035156-8.472656-1.703125-2.726563-3.621094-5.320313-5.730469-7.746094-4.539062-5.070312-10.28125-8.921875-16.695312-11.195312-6.59375-2.296875-13.726563-2.542969-20.460938-.707031-6.476562 1.691406-12.3125 5.253906-16.78125 10.242187-.820312.941406-.917968 2.3125-.238281 3.363281.679687 1.046875 1.96875 1.519532 3.164063 1.15625zm0 0"/>
	<path fill="white" d="m321.664062 233.363281c-1.597656-1.601562-3.769531-2.5-6.03125-2.5h-119.46875c-2.261718 0-4.429687.898438-6.03125 2.5l-8.535156 8.535157c-3.230468 3.347656-3.1875 8.667968.105469 11.960937s8.613281 3.335937 11.960937.105469l6.035157-6.035156h112.398437l6.035156 6.035156c3.347657 3.230468 8.671876 3.1875 11.960938-.105469 3.292969-3.292969 3.339844-8.613281.105469-11.960937zm0 0"/>
	<path fill="white" d="m264.433594 264.996094h-17.066406c-4.714844 0-8.535157 3.820312-8.535157 8.535156 0 4.710938 3.820313 8.53125 8.535157 8.53125h17.066406c4.710937 0 8.53125-3.820312 8.53125-8.53125 0-4.714844-3.820313-8.535156-8.53125-8.535156zm0 0"/></svg>